# Blender v2.72 (sub 0) OBJ File: ''
# www.blender.org
mtllib tri_building_short.mtl
o Cube.005_Cube.000
v -0.278550 2.174464 1.107966
v -0.278550 1.886158 1.107966
v -0.278550 1.886158 1.694458
v 0.307942 2.174464 1.107966
v 0.307942 1.886158 1.107966
v 0.307942 2.174464 1.694458
v 0.307942 1.886158 1.694458
v -0.278550 2.174464 1.694458
v 1.002135 2.201990 -2.007316
v 1.002134 2.201990 2.001060
v 1.002134 2.030972 2.001060
v -1.003583 2.201990 2.001059
v -1.003583 2.030972 2.001059
v -1.003583 2.201990 -2.007316
v -1.003583 2.030972 -2.007316
v 1.002135 0.005026 -2.007316
v -1.003583 0.005026 -2.007318
v -1.003583 0.190435 -2.007318
v 1.002135 0.190435 -2.007316
v 1.002135 0.190435 2.001059
v 1.002135 0.005026 2.001059
v -1.003583 0.190435 2.001059
v -1.003583 0.005026 2.001059
v 1.002135 2.030972 -2.007316
v -0.935561 2.201990 1.933038
v -0.935560 2.201990 -1.939295
v 0.934113 2.201990 1.933039
v 0.934114 2.201990 -1.939295
v -0.651037 1.897816 1.933038
v -0.651036 1.897816 -1.939295
v 0.586386 1.897816 1.933039
v 0.586387 1.897816 -1.939295
vt -2.259093 1.253592
vt -2.384429 1.253592
vt -2.384429 0.989186
vt -2.259093 1.518000
vt -2.384429 1.518000
vt -2.259093 0.989186
vt -2.384429 0.724777
vt -2.516664 1.518000
vt -2.261695 1.518000
vt -2.261695 1.782406
vt -0.199236 -4.368968
vt 2.741584 -4.368971
vt 2.741584 -4.110053
vt 0.633124 2.801487
vt 3.137968 2.801487
vt 3.137968 3.022967
vt 2.741584 2.283333
vt -0.199234 2.283336
vt -0.199234 2.024418
vt 0.633121 5.646727
vt -1.871725 5.646727
vt -1.871725 5.406609
vt -0.199236 -1.323524
vt 2.741584 -1.323524
vt 2.741584 -1.042817
vt 0.633121 5.406609
vt 3.137968 5.406609
vt 3.137968 5.646727
vt 2.741586 -0.762111
vt -0.199236 -0.762111
vt -0.199236 -1.042817
vt 0.633124 3.022967
vt -1.871725 3.022967
vt -1.871725 2.801487
vt -2.384429 -1.131992
vt -2.354857 -1.101327
vt -2.354857 0.644433
vt -1.512470 -1.131992
vt -1.542040 -1.101327
vt -2.384429 0.675098
vt -1.542040 0.644433
vt -1.380232 0.613765
vt -1.512470 0.613765
vt -2.516664 0.675098
vt -2.384429 0.831864
vt -2.384429 1.389729
vt -1.380232 1.456667
vt -1.512470 1.328395
vt -1.693210 0.644433
vt -1.693210 -1.101327
vt -2.231164 0.644433
vt -2.231164 -1.101327
vt -0.528082 0.759077
vt -0.571089 0.759077
vt -0.571089 0.668352
vt -0.314905 0.651306
vt -0.325051 0.640784
vt -0.325051 0.041772
vt -2.259093 0.724777
vt -2.516664 1.782406
vt -0.199236 -4.110053
vt 2.741584 2.024418
vt -1.512470 0.675098
vt -1.380232 -1.131992
vt -1.512470 0.770530
vt -0.528082 0.668352
vt -0.314905 0.031250
vt 0.712237 0.938438
vt -0.008203 0.938438
vt -0.008203 0.252859
vt -0.292332 0.932601
vt -0.292332 0.244435
vt 1.153682 0.244434
vt -0.007543 0.938019
vt -0.007543 0.252440
vt 0.712897 0.252440
vt -0.292332 0.246487
vt 1.153683 0.246487
vt 1.153683 0.934652
vt 0.712237 0.252859
vt 1.153682 0.932600
vt 0.712897 0.938019
vt -0.292332 0.934652
vn -1.000000 0.000000 0.000000
vn 0.000000 0.000000 -1.000000
vn 1.000000 0.000000 0.000000
vn 0.000000 1.000000 0.000000
vn -0.000000 0.000000 1.000000
vn 0.730300 0.683100 0.000000
vn -0.658400 0.752700 -0.000000
usemtl Concrete.000
s off
f 1/1/1 2/2/1 3/3/1
f 4/4/2 5/5/2 2/2/2
f 6/6/3 7/3/3 5/7/3
f 8/8/4 6/9/4 4/10/4
f 9/11/3 10/12/3 11/13/3
f 10/14/5 12/15/5 13/16/5
f 12/17/1 14/18/1 15/19/1
f 16/20/2 17/21/2 18/22/2
f 19/23/3 20/24/3 21/25/3
f 20/26/5 22/27/5 23/28/5
f 22/29/1 18/30/1 17/31/1
f 24/32/2 15/33/2 14/34/2
f 12/35/4 25/36/4 26/37/4
f 12/35/4 10/38/4 27/39/4
f 14/40/4 26/37/4 28/41/4
f 25/42/6 29/43/6 30/38/6
f 27/44/2 31/45/2 29/46/2
f 28/42/5 26/47/5 30/48/5
f 28/41/7 32/49/7 31/50/7
f 30/51/4 29/52/4 31/50/4
f 8/53/5 3/54/5 7/55/5
f 9/56/4 28/57/4 27/58/4
f 8/6/1 1/1/1 3/3/1
f 1/1/2 4/4/2 2/2/2
f 4/59/3 6/6/3 5/7/3
f 1/60/4 8/8/4 4/10/4
f 24/61/3 9/11/3 11/13/3
f 11/32/5 10/14/5 13/16/5
f 13/62/1 12/17/1 15/19/1
f 19/26/2 16/20/2 18/22/2
f 16/31/3 19/23/3 21/25/3
f 21/20/5 20/26/5 23/28/5
f 23/25/1 22/29/1 17/31/1
f 9/14/2 24/32/2 14/34/2
f 14/40/4 12/35/4 26/37/4
f 25/36/4 12/35/4 27/39/4
f 9/63/4 14/40/4 28/41/4
f 26/64/6 25/42/6 30/38/6
f 25/8/2 27/44/2 29/46/2
f 32/65/5 28/42/5 30/48/5
f 27/39/7 28/41/7 31/50/7
f 32/49/4 30/51/4 31/50/4
f 6/66/5 8/53/5 7/55/5
f 10/67/4 9/56/4 27/58/4
usemtl Windows.000
f 19/68/2 18/69/2 15/70/2
f 19/71/3 24/72/3 11/73/3
f 20/74/5 11/75/5 13/76/5
f 13/77/1 15/78/1 18/79/1
f 24/80/2 19/68/2 15/70/2
f 20/81/3 19/71/3 11/73/3
f 22/82/5 20/74/5 13/76/5
f 22/83/1 13/77/1 18/79/1
