# Blender v2.72 (sub 0) OBJ File: ''
# www.blender.org
mtllib building_tall.mtl
o Cube.002_Cube.003
v 0.949177 5.834009 -0.977331
v 0.949177 0.190435 -0.977332
v -1.050823 0.190435 -0.977332
v -1.050823 5.834009 -0.977331
v 0.949176 5.834009 1.022669
v 0.949177 0.190435 1.022668
v -1.050823 5.834009 1.022669
v -1.050823 0.190435 1.022668
v 0.016219 5.959457 0.716068
v 0.016219 5.959457 0.129576
v 0.016219 5.671150 0.129576
v 0.016219 5.671150 0.716068
v 0.602711 5.959457 0.129576
v 0.602711 5.671150 0.129576
v 0.602711 5.959457 0.716068
v 0.602711 5.671150 0.716068
v 0.949177 6.005026 -0.977331
v 0.949176 6.005026 1.022669
v -1.050823 6.005026 1.022669
v -1.050823 6.005026 -0.977331
v 0.949177 0.005026 -0.977332
v -1.050823 0.005026 -0.977332
v 0.949177 0.005026 1.022668
v -1.050823 0.005026 1.022668
v -0.982802 6.005026 0.954647
v -0.982801 6.005026 -0.909310
v 0.881155 6.005026 0.954648
v 0.881156 6.005026 -0.909309
v -0.982802 5.700852 0.954647
v -0.982801 5.700852 -0.909310
v 0.881155 5.700852 0.954648
v 0.881156 5.700852 -0.909309
vt 0.619028 1.476109
vt 0.130973 1.476109
vt 0.130973 -0.476110
vt 0.619027 -0.476110
vt 1.000000 0.000000
vt 1.000000 1.000000
vt 0.000000 1.000000
vt -0.367690 1.095664
vt -0.515639 1.095665
vt -0.515639 0.797832
vt 0.136367 0.500000
vt 0.284316 0.500000
vt 0.284316 0.797832
vt 0.432265 0.797832
vt -0.515639 0.500000
vt -0.214672 0.500000
vt -0.214672 0.797832
vt -0.126912 1.515639
vt -0.126912 0.500000
vt -0.039152 0.500000
vt 0.136367 1.515639
vt 0.048607 1.515639
vt 0.048607 0.500000
vt -0.039152 1.515639
vt 1.420494 0.430915
vt 1.420494 1.446554
vt 1.325348 1.446554
vt 1.515639 0.430915
vt 1.515639 1.446554
vt 1.230203 0.430915
vt 1.230203 1.446554
vt 1.135057 1.446554
vt 1.325348 0.430915
vt -0.214672 1.515639
vt -0.480733 0.465458
vt 0.475785 0.465457
vt -0.515639 -0.515639
vt -0.480733 -0.481096
vt 0.510691 0.500000
vt 0.475784 -0.481097
vt 0.510691 -0.515639
vt 0.510691 0.430915
vt 0.666783 0.430915
vt 0.666783 1.377468
vt 0.978966 1.377468
vt 0.822874 1.377468
vt 0.822874 0.430915
vt 1.135057 1.377468
vt 0.978966 0.430915
vt 1.467209 -0.515639
vt 1.467209 0.430915
vt 0.000000 0.000000
vt -0.367690 0.797832
vt 0.136367 0.797832
vt 0.432265 0.500000
vt 1.135057 0.430915
vt 0.510691 1.377468
vn 0.000000 0.000000 -1.000000
vn 1.000000 -0.000000 0.000000
vn 0.000000 -0.000000 1.000000
vn -1.000000 -0.000000 0.000000
vn 0.000000 1.000000 0.000000
usemtl Windows.004
s off
f 2/1/1 3/2/1 4/3/1
f 2/4/2 1/1/2 5/2/2
f 6/4/3 5/1/3 7/2/3
f 7/3/4 4/4/4 3/1/4
f 1/4/1 2/1/1 4/3/1
f 6/3/2 2/4/2 5/2/2
f 8/3/3 6/4/3 7/2/3
f 8/2/4 7/3/4 3/1/4
usemtl Concrete
f 10/5/4 11/6/4 12/7/4
f 13/8/1 14/9/1 11/10/1
f 15/11/2 16/12/2 14/13/2
f 9/14/3 12/13/3 16/12/3
f 9/15/5 15/16/5 13/17/5
f 17/18/2 18/19/2 5/20/2
f 18/11/3 19/21/3 7/22/3
f 19/23/4 20/22/4 4/24/4
f 21/25/1 22/26/1 3/27/1
f 2/28/2 6/29/2 23/26/2
f 6/30/3 8/31/3 24/32/3
f 8/33/4 3/27/4 22/31/4
f 1/34/1 4/16/1 20/19/1
f 19/15/5 25/35/5 26/36/5
f 18/37/5 27/38/5 25/35/5
f 20/39/5 26/36/5 28/40/5
f 17/41/5 28/40/5 27/38/5
f 25/42/2 29/43/2 30/44/2
f 27/45/1 31/46/1 29/47/1
f 26/48/3 30/45/3 32/49/3
f 28/46/4 32/44/4 31/43/4
f 30/50/5 29/51/5 31/42/5
f 9/52/4 10/5/4 12/7/4
f 10/53/1 13/8/1 11/10/1
f 13/54/2 15/11/2 14/13/2
f 15/55/3 9/14/3 16/12/3
f 10/10/5 9/15/5 13/17/5
f 1/24/2 17/18/2 5/20/2
f 5/23/3 18/11/3 7/22/3
f 7/20/4 19/23/4 4/24/4
f 2/33/1 21/25/1 3/27/1
f 21/25/2 2/28/2 23/26/2
f 23/56/3 6/30/3 24/32/3
f 24/30/4 8/33/4 22/31/4
f 17/18/1 1/34/1 20/19/1
f 20/39/5 19/15/5 26/36/5
f 19/15/5 18/37/5 25/35/5
f 17/41/5 20/39/5 28/40/5
f 18/37/5 17/41/5 27/38/5
f 26/57/2 25/42/2 30/44/2
f 25/49/1 27/45/1 29/47/1
f 28/56/3 26/48/3 32/49/3
f 27/47/4 28/46/4 31/43/4
f 32/41/5 30/50/5 31/42/5
