# Blender v2.72 (sub 0) OBJ File: ''
# www.blender.org
mtllib building_tall_pyr.mtl
o Cube.006_Cube.007
v 0.976670 7.610892 -0.985018
v 0.976669 0.190435 -0.985018
v -0.999947 0.190435 -0.985019
v -0.999947 7.610892 -0.985018
v 0.976669 7.610892 1.014982
v 0.976669 0.190435 1.014982
v -0.999947 7.610892 1.014981
v -0.999947 0.190435 1.014981
v -0.999947 7.781910 -0.985018
v -0.999947 7.781910 1.014981
v -0.931926 7.781910 0.946960
v -0.931925 7.781910 -0.916997
v 0.976670 7.781910 -0.985018
v 0.908648 7.781910 -0.916996
v 0.976669 7.781910 1.014982
v 0.908647 7.781910 0.946961
v 0.976669 0.005026 -0.985018
v -0.999947 0.005026 -0.985019
v 0.976669 0.005026 1.014982
v -0.999947 0.005026 1.014981
v -0.059958 9.328147 0.204459
v -0.059958 9.328147 -0.174495
v 0.005805 9.328147 0.204459
v 0.005805 9.328147 -0.174495
vt 0.517959 -0.289691
vt 0.839317 -0.289691
vt 0.839317 1.003346
vt 0.517959 1.003346
vt 0.192799 1.003346
vt 0.192798 -0.289691
vt 0.836732 1.003346
vt 0.515373 1.003346
vt 0.515373 -0.289691
vt 0.190213 1.003346
vt 0.190213 -0.289691
vt 1.000000 0.000000
vt 1.000000 1.000000
vt 0.000000 1.000000
vt 0.836731 -0.289691
vt 0.000000 0.000000
vt 0.461618 -0.915160
vt 2.300639 -0.915160
vt 2.300639 -0.765920
vt -1.377403 -1.377403
vt 0.440116 -1.377403
vt 0.440116 -1.227525
vt 2.300638 -0.591427
vt 0.461618 -0.591427
vt 0.461618 -0.740793
vt 0.440116 -0.915160
vt -1.377403 -0.915160
vt -1.377403 -1.077649
vt 0.461618 -0.753361
vt 0.440116 -1.077649
vt 2.257635 -1.077649
vt 2.257635 -0.915160
vt -1.377403 -0.591427
vt -1.377403 -0.753361
vt -1.377403 -1.227526
vt 0.502664 -1.287798
vt 2.195091 -1.287798
vt 0.336525 0.889337
vt -1.377403 0.889337
vt -0.694665 -0.591427
vt 2.028951 0.925227
vt 1.198778 2.377403
vt 1.138309 2.377403
vt 0.336525 -0.562837
vt 2.028951 -0.562837
vt 1.227169 0.889337
vt -0.346213 2.377403
vt 2.377403 2.377403
vt 2.028951 2.377403
vt 2.028951 2.319131
vt 0.461618 -0.765920
vt 2.300638 -0.740793
vt 2.257637 -1.227525
vt -0.346213 -0.591427
vt 0.336525 0.925227
vt 1.166699 0.889337
vt -0.694666 2.377403
vt 2.377403 2.319131
vn 0.000000 0.000000 -1.000000
vn 1.000000 -0.000000 0.000000
vn -0.000000 -0.000000 1.000000
vn -1.000000 0.000000 0.000000
vn 0.000000 1.000000 -0.000000
vn -0.871000 0.491200 -0.000000
vn 0.000000 0.432900 0.901500
vn 0.000000 0.432900 -0.901500
vn 0.863600 0.504200 0.000000
usemtl Tower
s off
f 2/1/1 3/2/1 4/3/1
f 1/4/2 5/5/2 6/6/2
f 5/7/3 7/8/3 8/9/3
f 7/8/4 4/10/4 3/11/4
f 10/12/5 11/13/5 12/14/5
f 9/12/5 12/13/5 14/14/5
f 13/12/5 14/13/5 16/14/5
f 1/4/1 2/1/1 4/3/1
f 2/1/2 1/4/2 6/6/2
f 6/15/3 5/7/3 8/9/3
f 8/9/4 7/8/4 3/11/4
f 9/16/5 10/12/5 12/14/5
f 13/16/5 9/12/5 14/14/5
f 15/16/5 13/12/5 16/14/5
usemtl Bricks
f 13/17/2 15/18/2 5/19/2
f 15/20/3 10/21/3 7/22/3
f 10/23/4 9/24/4 4/25/4
f 17/26/1 18/27/1 3/28/1
f 2/27/2 6/17/2 19/29/2
f 6/30/3 8/31/3 20/32/3
f 8/24/4 3/33/4 18/34/4
f 1/35/1 4/22/1 9/30/1
f 15/22/5 16/36/5 11/37/5
f 12/38/6 11/39/6 21/40/6
f 16/41/7 23/42/7 21/43/7
f 14/44/8 12/45/8 22/46/8
f 16/39/9 14/38/9 24/47/9
f 22/48/5 21/49/5 23/50/5
f 1/51/2 13/17/2 5/19/2
f 5/35/3 15/20/3 7/22/3
f 7/52/4 10/23/4 4/25/4
f 2/30/1 17/26/1 3/28/1
f 17/34/2 2/27/2 19/29/2
f 19/26/3 6/30/3 20/32/3
f 20/29/4 8/24/4 18/34/4
f 13/28/1 1/35/1 9/30/1
f 10/53/5 15/22/5 11/37/5
f 22/54/6 12/38/6 21/40/6
f 11/55/7 16/41/7 21/43/7
f 24/56/8 14/44/8 22/46/8
f 23/57/9 16/39/9 24/47/9
f 24/58/5 22/48/5 23/50/5
